<svg width="114" height="111" viewBox="0 0 114 111" fill="none" xmlns="http://www.w3.org/2000/svg">
<g id="logo">
<g id="Group">
<g id="Group_2">
<path id="Vector" d="M49.6317 75.4622H45.9801V51.8162C45.9801 46.29 41.0211 41.7929 34.9274 41.7929C28.8338 41.7929 23.8748 46.29 23.8748 51.8162V75.4622H20.2232V51.8162C20.2232 44.4607 26.8212 38.4814 34.9274 38.4814C43.0337 38.4814 49.6317 44.4649 49.6317 51.8162V75.4622Z" fill="#14BBB3"/>
<path id="Vector_2" d="M78.419 43.2156C77.7933 43.2156 77.1816 43.2749 76.5932 43.3807V75.4663H80.2448V43.3807C79.6517 43.2706 79.0447 43.2156 78.419 43.2156Z" fill="#01726E"/>
<path id="Vector_3" d="M93.1233 75.4622H89.4717V51.8162C89.4717 46.29 84.5127 41.7929 78.419 41.7929C72.3254 41.7929 67.3664 46.29 67.3664 51.8162V75.4622H63.7148V51.8162C63.7148 44.4607 70.3128 38.4814 78.419 38.4814C86.5253 38.4814 93.1233 44.4649 93.1233 51.8162V75.4622Z" fill="#14BBB3"/>
<g id="Group_3">
<path id="Vector_4" d="M34.9273 43.2156C34.3016 43.2156 33.6899 43.2749 33.1016 43.3807V75.4663H36.7531V43.3807C36.1601 43.2706 35.5484 43.2156 34.9273 43.2156Z" fill="#01726E"/>
<path id="Vector_5" d="M68.062 20.4758C65.1996 19.1462 57.6957 15.0132 57.621 14.9709L56.7384 14.4839L55.8232 14.9201C55.431 15.1064 46.162 19.5315 42.8327 21.4032C36.4355 24.9984 33.0968 27.2512 33.0968 35.2842V37.1559C33.6992 37.0966 34.3062 37.0585 34.9226 37.0585C35.5389 37.0585 36.1507 37.0924 36.7483 37.1559V35.2842C36.7483 29.017 38.6722 27.6365 44.7519 24.2192C47.3761 22.7414 54.1469 19.4722 56.6077 18.2908C58.7183 19.4426 63.9855 22.3094 66.3903 23.4274C73.2778 26.6245 76.5838 28.4665 76.5838 35.2885V37.1602C77.1862 37.1009 77.7932 37.0628 78.4096 37.0628C79.0259 37.0628 79.6376 37.0966 80.2353 37.1602V35.2885C80.2447 26.7473 75.6406 23.9948 68.062 20.4758Z" fill="#01726E"/>
</g>
</g>
<g id="Group_4">
<path id="Vector_6" d="M5.94427 37.2914V35.8432C5.94427 35.7373 5.99563 35.6399 6.08435 35.5722L9.39502 33.0568L12.7057 35.5722C12.7944 35.6399 12.8458 35.7373 12.8458 35.8432V37.2914H16.4973V35.8432C16.4973 34.7549 15.9697 33.7301 15.0498 33.0314L9.39502 28.7375L3.74027 33.0272C2.82038 33.7259 2.29272 34.7507 2.29272 35.839V37.2872H5.94427V37.2914Z" fill="#14BBB3"/>
<path id="Vector_7" d="M5.94421 41.5515H2.29266V75.4622H5.94421V41.5515Z" fill="#01726E"/>
<path id="Vector_8" d="M16.5017 41.5515H12.8502V75.4622H16.5017V41.5515Z" fill="#01726E"/>
</g>
<g id="Group_5">
<path id="Vector_9" d="M100.497 37.2914V35.8432C100.497 35.7373 100.548 35.6399 100.637 35.5722L103.948 33.0568L107.259 35.5722C107.347 35.6399 107.399 35.7373 107.399 35.8432V37.2914H111.05V35.8432C111.05 34.7549 110.522 33.7301 109.603 33.0314L103.948 28.7375L98.2931 33.0314C97.3732 33.7301 96.8456 34.7549 96.8456 35.8432V37.2914H100.497Z" fill="#14BBB3"/>
<path id="Vector_10" d="M100.492 41.5515H96.8407V75.4622H100.492V41.5515Z" fill="#01726E"/>
<path id="Vector_11" d="M111.05 41.5515H107.398V75.4622H111.05V41.5515Z" fill="#01726E"/>
</g>
<g id="Group_6">
<path id="Vector_12" d="M52.3077 11.7399C55.1421 13.8106 59.3119 13.4083 61.6 10.8337C63.197 9.03822 63.4678 6.59062 62.4592 4.57495C62.3845 5.69289 61.9315 6.78118 61.1284 7.68315C59.0318 10.0461 55.2028 10.4187 52.5972 8.51313C51.2991 7.56458 50.5146 6.20104 50.3652 4.7528C49.2491 7.14959 49.9636 10.0249 52.3077 11.7399Z" fill="#14BBB3"/>
<path id="Vector_13" d="M54.7313 4.9263L56.4496 3.7872L58.168 4.9263L57.505 3.08849L59.2327 1.95785L57.1034 1.96208L56.4496 0.124268L55.7959 1.96208L53.6666 1.95785L55.3897 3.08849L54.7313 4.9263Z" fill="#14BBB3"/>
</g>
</g>
<g id="Group_7">
<path id="Vector_14" d="M17.4359 79.5609H18.79C17.8888 79.9801 17.4359 81.0006 17.4359 82.614V84.4391V91.7184V95.3729V96.6009C17.4359 98.6166 16.3245 99.6244 14.1019 99.6244H12.7477C13.6489 99.2264 14.1019 98.2185 14.1019 96.6009V95.3729V92.0191V88.9659V86.2685C13.1773 87.289 12.3088 88.3223 11.4916 89.3682C10.6745 90.4142 9.918 91.5109 9.21291 92.6458C8.39575 91.6888 7.61594 90.719 6.86882 89.7409C6.12171 88.7627 5.39326 87.7633 4.68817 86.747V88.0936V91.1171V96.5967C4.68817 98.6123 3.57683 99.6202 1.35415 99.6202H0C0.901212 99.2221 1.35415 98.2143 1.35415 96.5967V82.6098C1.35415 80.5729 2.46549 79.5566 4.68817 79.5566H6.04232C5.73414 79.7176 5.49132 79.9166 5.31388 80.158C5.0057 80.5391 4.97301 80.9456 5.21582 81.386C5.79017 82.4023 6.39254 83.3932 7.03226 84.3502C7.67198 85.3072 8.35372 86.2558 9.08216 87.1959C9.8106 86.2177 10.5531 85.2606 11.3095 84.3206C12.0706 83.3847 12.8551 82.4531 13.6723 81.5342C13.8684 81.2759 14.1112 81.0557 14.4007 80.8736C14.863 80.556 15.3253 80.2765 15.7876 80.0351C16.2498 79.7938 16.7915 79.6371 17.4079 79.5566H17.4359V79.5609Z" fill="#14BBB3"/>
<path id="Vector_15" d="M31.1084 79.5609C31.8135 79.5609 32.3225 79.7048 32.6447 79.997C32.9622 80.285 33.1256 80.7508 33.1256 81.3902V84.4137V94.7758V97.7993C33.1256 98.4387 32.9669 98.9045 32.6447 99.1925C32.3271 99.4804 31.8135 99.6286 31.1084 99.6286H22.3905C21.6854 99.6286 21.1717 99.4847 20.8542 99.1925C20.5367 98.9045 20.3732 98.4387 20.3732 97.7993V81.386C20.3732 80.7466 20.532 80.2808 20.8542 79.9928C21.1717 79.7049 21.6854 79.5566 22.3905 79.5566H25.0661H27.7744H31.1084V79.5609ZM29.7869 96.5755V94.7504V84.4095V82.614H23.7446V88.0555V91.1044V96.5755H29.7869Z" fill="#14BBB3"/>
<path id="Vector_16" d="M50.3976 86.87H49.0761C46.8301 86.87 45.7094 85.8579 45.7094 83.838V83.2451V82.6184H39.6624V88.0684H42.3707H47.0589C47.764 88.0684 48.273 88.2123 48.5952 88.5045C48.9127 88.7967 49.0761 89.2583 49.0761 89.8977V94.7802V97.8037C49.0761 98.4431 48.9174 98.9089 48.5952 99.1969C48.2776 99.4848 47.764 99.633 47.0589 99.633H38.3409C37.6125 99.633 37.0989 99.4891 36.7907 99.1969C36.4825 98.9089 36.3284 98.4431 36.3284 97.8037V95.9786V95.3773C36.3284 93.7597 35.8755 92.7434 34.9742 92.3241H36.3284C38.5511 92.3241 39.6624 93.3362 39.6624 95.3561V95.9532V96.5757H45.7047V94.759V91.1257H42.3707H39.6624H38.3409C37.6125 91.1257 37.0989 90.9818 36.7907 90.6896C36.4825 90.4016 36.3284 89.9358 36.3284 89.2964V81.3904C36.3284 80.751 36.4825 80.2852 36.7907 79.9972C37.0989 79.7092 37.6172 79.561 38.3409 79.561H41.0166H43.6922H47.0589C47.764 79.561 48.273 79.705 48.5952 79.9972C48.9127 80.2852 49.0761 80.751 49.0761 81.3904V83.2155V83.8126C49.0761 85.4302 49.515 86.4507 50.3976 86.87Z" fill="#14BBB3"/>
<path id="Vector_17" d="M62.6832 79.5313C63.4117 79.5313 63.9253 79.6753 64.2335 79.9675C64.5417 80.2597 64.6958 80.7213 64.6958 81.3607V84.4138V94.7462V97.7994C64.6958 98.4388 64.5417 98.9046 64.2335 99.1926C63.9253 99.4805 63.407 99.6287 62.6832 99.6287H60.666C60.666 101.225 61.119 102.233 62.0202 102.652H60.666C58.4433 102.652 57.332 101.644 57.332 99.6287H53.9653C53.2602 99.6287 52.7465 99.4848 52.429 99.1926C52.1115 98.9046 51.9481 98.4388 51.9481 97.7994V81.3564C51.9481 80.717 52.1068 80.2554 52.429 79.9633C52.7465 79.6753 53.2602 79.5271 53.9653 79.5271H56.6736H59.3492H62.6832V79.5313ZM57.332 93.5182C59.5547 93.5182 60.666 94.5345 60.666 96.5714H61.3618V94.7462V84.4138V82.5887H55.3194V88.0683V91.0918V96.5714H57.332C57.332 94.9537 56.8791 93.9374 55.9778 93.5182H57.332Z" fill="#14BBB3"/>
<path id="Vector_18" d="M66.3816 79.561H67.7031C69.9491 79.561 71.0698 80.5689 71.0698 82.5845V88.0641V91.1173V96.5672H77.1121V94.7717V84.4096V82.5845C77.1121 80.5689 78.2235 79.561 80.4461 79.561H81.8003C80.8991 79.9633 80.4461 80.9712 80.4461 82.5845V84.4096V94.7717V97.7952C80.4461 98.4346 80.2874 98.9004 79.9652 99.1884C79.6477 99.4764 79.134 99.6246 78.4289 99.6246H69.7109C69.0058 99.6246 68.4922 99.4806 68.1747 99.1884C67.8572 98.8962 67.6937 98.4346 67.6937 97.7952V82.5803C67.7031 80.95 67.2641 79.9421 66.3816 79.561Z" fill="#14BBB3"/>
<path id="Vector_19" d="M96.1403 95.3773V97.8037C96.1403 98.4431 95.9816 98.9089 95.6594 99.1969C95.3418 99.4848 94.8282 99.633 94.1231 99.633H85.4052C84.7001 99.633 84.1864 99.4891 83.8689 99.1969C83.5514 98.9047 83.3879 98.4431 83.3879 97.8037V81.3904C83.3879 80.751 83.5467 80.2852 83.8689 79.9972C84.1911 79.7092 84.7001 79.561 85.4052 79.561H88.1135H90.7891H94.1231C94.8282 79.561 95.3418 79.705 95.6594 79.9972C95.9769 80.2852 96.1403 80.751 96.1403 81.3904V83.2155C96.1403 84.8331 96.5933 85.841 97.4945 86.239H96.1403C93.9176 86.239 92.8063 85.2312 92.8063 83.2155V82.6142H86.764V88.0641H89.4396C91.6856 88.0641 92.8063 89.0804 92.8063 91.1173H89.4396H86.764V96.5672H92.8063V95.3476C92.8063 93.3235 93.9176 92.3157 96.1403 92.3157H97.4945C96.5886 92.7391 96.1403 93.7597 96.1403 95.3773Z" fill="#14BBB3"/>
<path id="Vector_20" d="M113.412 86.87H112.091C109.845 86.87 108.724 85.8579 108.724 83.838V83.2451V82.6184H102.682V88.0684H105.39H110.078C110.784 88.0684 111.292 88.2123 111.615 88.5045C111.932 88.7967 112.096 89.2583 112.096 89.8977V94.7802V97.8037C112.096 98.4431 111.937 98.9089 111.615 99.1969C111.297 99.4848 110.784 99.633 110.078 99.633H101.36C100.632 99.633 100.114 99.4891 99.8102 99.1969C99.502 98.9089 99.3479 98.4431 99.3479 97.8037V95.9786V95.3773C99.3479 93.7597 98.895 92.7434 97.9938 92.3241H99.3479C101.571 92.3241 102.682 93.3362 102.682 95.3561V95.9532V96.5757H108.724V94.759V91.1257H105.39H102.682H101.36C100.632 91.1257 100.114 90.9818 99.8102 90.6896C99.502 90.4016 99.3479 89.9358 99.3479 89.2964V81.3904C99.3479 80.751 99.502 80.2852 99.8102 79.9972C100.118 79.7092 100.637 79.561 101.36 79.561H104.036H106.712H110.078C110.784 79.561 111.292 79.705 111.615 79.9972C111.932 80.2852 112.096 80.751 112.096 81.3904V83.2155V83.8126C112.091 85.4302 112.53 86.4507 113.412 86.87Z" fill="#14BBB3"/>
</g>
<g id="Group_8">
<path id="Vector_21" d="M18.44 110.156C18.0525 110.156 17.6976 110.088 17.38 109.949C17.0625 109.809 16.7917 109.627 16.5629 109.398C16.3341 109.169 16.1613 108.907 16.0352 108.615C15.9092 108.318 15.8484 108.018 15.8484 107.713C15.8484 107.391 15.9138 107.082 16.0446 106.79C16.1753 106.493 16.3574 106.235 16.5909 106.01C16.8244 105.782 17.0999 105.604 17.4174 105.468C17.7349 105.333 18.0851 105.269 18.4587 105.269C18.8416 105.269 19.1918 105.341 19.5093 105.481C19.8269 105.621 20.0977 105.811 20.3218 106.04C20.546 106.269 20.7234 106.535 20.8448 106.828C20.9709 107.124 21.0316 107.42 21.0316 107.725C21.0316 108.047 20.9662 108.352 20.8355 108.644C20.7047 108.936 20.5273 109.195 20.2938 109.419C20.065 109.644 19.7895 109.821 19.472 109.957C19.1638 110.088 18.8136 110.156 18.44 110.156ZM16.8991 107.708C16.8991 107.916 16.9318 108.119 17.0018 108.314C17.0719 108.509 17.1746 108.682 17.3053 108.831C17.4361 108.979 17.5995 109.102 17.791 109.191C17.9824 109.279 18.2019 109.326 18.4447 109.326C18.6922 109.326 18.9163 109.279 19.1078 109.186C19.2992 109.093 19.4626 108.97 19.5934 108.814C19.7241 108.661 19.8269 108.488 19.8922 108.293C19.9576 108.098 19.995 107.903 19.995 107.704C19.995 107.497 19.9576 107.293 19.8876 107.099C19.8175 106.904 19.7148 106.73 19.5794 106.582C19.4486 106.434 19.2852 106.315 19.0937 106.226C18.9023 106.137 18.6875 106.095 18.4447 106.095C18.1925 106.095 17.9731 106.142 17.777 106.235C17.5808 106.328 17.4221 106.451 17.2913 106.603C17.1606 106.756 17.0625 106.925 16.9971 107.12C16.9318 107.315 16.8991 107.514 16.8991 107.708Z" fill="#01726E"/>
<path id="Vector_22" d="M33.1395 107.031V110.122H32.1075V105.299H32.9107L35.6844 108.466V105.307H36.7163V110.126H35.8758L33.1395 107.031Z" fill="#01726E"/>
<path id="Vector_23" d="M48.0956 110.122V105.299H49.1276V109.301H51.8406V110.122H48.0956Z" fill="#01726E"/>
<path id="Vector_24" d="M62.7394 110.122V105.299H63.7714V110.122H62.7394Z" fill="#01726E"/>
<path id="Vector_25" d="M76.1877 107.031V110.122H75.1557V105.299H75.9589L78.7325 108.466V105.307H79.7645V110.126H78.924L76.1877 107.031Z" fill="#01726E"/>
<path id="Vector_26" d="M94.8373 109.301V110.122H91.1437V105.299H94.7719V106.12H92.1804V107.281H94.4217V108.043H92.1804V109.301H94.8373Z" fill="#01726E"/>
</g>
</g>
</svg>
